<?xml version="1.0" encoding="UTF-8"?>
<!DOCTYPE svg PUBLIC "-//W3C//DTD SVG 1.1//EN" "http://www.w3.org/Graphics/SVG/1.1/DTD/svg11.dtd">
<!-- Creator: CorelDRAW 2020 (64-Bit) -->
<svg xmlns="http://www.w3.org/2000/svg" xml:space="preserve" width="8.5in" height="11in" version="1.1" style="shape-rendering:geometricPrecision; text-rendering:geometricPrecision; image-rendering:optimizeQuality; fill-rule:evenodd; clip-rule:evenodd"
viewBox="0 0 8500 11000"
 xmlns:xlink="http://www.w3.org/1999/xlink"
 xmlns:xodm="http://www.corel.com/coreldraw/odm/2003">
 <defs>
  <style type="text/css">
   <![CDATA[
    .fil0 {fill:#0183FE}
    .fil1 {fill:#FEFEFE}
   ]]>
  </style>
 </defs>
 <g id="Layer_x0020_1">
  <metadata id="CorelCorpID_0Corel-Layer"/>
  <g id="_2619900487008">
   <path class="fil0" d="M4200.5 2529.21c-226.82,11.36 -416.9,30.63 -635.98,88.79 -378.58,100.51 -676.28,243.06 -985.76,464.45 -36.03,25.78 -68.67,51.65 -102.59,78.36 -17.23,13.56 -32.31,25.73 -48.99,40.24 -21.82,19 -79.76,66.1 -96.87,84.12l-47.05 44.63c-32.67,29.97 -61.76,59.1 -91.92,91.56l-43.08 46.2c-209.56,219.44 -418.57,547.9 -533.78,827.07 -72.67,176.06 -130.35,350.47 -171.68,552.26 -108.29,528.75 -64.97,1074.24 117.69,1578.08 107.71,297.09 264.49,567.09 457.07,812.03 51.18,65.09 93.94,110.08 145.69,169.15l209.28 202.24c88.18,80.05 206.11,168.22 307.05,235.77 489.91,327.87 1090.52,503 1691.72,483.1 224.09,-7.41 428.75,-37.39 634.13,-88.88 165.8,-41.56 382.14,-117.88 532.56,-193.76 83.31,-42.03 159.29,-81.02 235.36,-126.56 109.85,-65.78 271.37,-177.15 369.37,-262.72 15.81,-13.81 34.56,-27.5 49.69,-42.07l186.17 -178.22c66.58,-71.45 104.2,-110.82 169.45,-192.43 428.2,-535.49 657.46,-1202.66 636.03,-1901.16 -6.72,-219.19 -37.59,-433.2 -88.95,-633.8 -94.49,-369.07 -246.22,-679.03 -464.4,-985.65 -25.62,-36 -51.88,-68.78 -78.37,-102.59 -19.12,-24.41 -106.35,-128.93 -124.35,-145.89l-44.65 -47.02c-34.61,-37.85 -75.99,-77.84 -113.87,-114.17 -105,-100.71 -265.43,-224.03 -379.14,-300.1 -135.97,-90.97 -303.66,-185.44 -471.8,-254.52 -177.51,-72.93 -349.8,-129.93 -552.02,-171.58 -201.59,-41.52 -451.46,-67.67 -666.01,-56.93z"/>
   <path class="fil1" d="M2950.93 3463.67c-93.57,9.1 -173.97,54.14 -233.94,118.89l-60.6 65.8c-502.76,553.51 -755.46,1302.91 -573.14,2075.28 184.88,783.2 814,1485.52 1628.94,1618.62 537.62,87.8 1043.24,-106.95 1392.56,-385.31 73.57,-58.63 161.64,-140.73 221.15,-210.12 158.35,-184.63 273.7,-379.09 351.3,-640.41 65.67,-221.15 83.77,-486.08 40.95,-726.09 -48.85,-273.83 -160.77,-503.72 -320.57,-692.96 -16.3,-19.31 -31.78,-36.5 -47.75,-53.88l-50.72 -50.85c-65.96,-63 -153.35,-128.59 -230.26,-176.3 -79.84,-49.54 -176.71,-101.11 -283.73,-122.8 -112.59,-22.81 -262.85,-25.18 -377.52,-6.73 -409.46,65.88 -728.69,412.43 -775.18,846.07 -26.74,249.34 37.71,506.61 223.79,577.93 117.7,45.12 245.76,0.23 305.87,-65.81 96.02,-105.49 43.57,-183.11 40.52,-330.76 -5.06,-244.59 108.24,-446.16 372.4,-438.81 113.63,3.17 230.16,51.53 304.19,102.36 283.19,194.43 311.26,585.67 218.41,903.62 -30.86,105.68 -74.32,198.81 -123.26,283.33 -24.8,42.85 -52.99,84.27 -81.88,121.36l-118.91 133.94 -81.15 70.08c-119.59,92.82 -256.48,162.3 -414,195.94 -324.66,69.35 -707.14,-17.59 -982.77,-184.15 -161.8,-97.78 -309.09,-242.46 -410.63,-402.48 -51.14,-80.6 -99.29,-170.48 -135.89,-270.56 -164.28,-449.19 -123.35,-943.74 56.73,-1361.64 41.25,-95.73 85.96,-185 136.38,-267.62 21.52,-35.26 56.23,-92.74 81.12,-122.24 31.81,-37.7 58.62,-71.6 86.59,-116.63 48.96,-78.8 102.61,-200.31 76.1,-318.74 -22.37,-99.94 -111.46,-180.35 -235.09,-168.32z"/>
   <path class="fil1" d="M4461.9 3504.08c-262.47,20.3 -435.48,66.18 -647.62,161.92 -197.15,88.97 -353.91,209.07 -480.64,329.98 -64.59,61.63 -129.45,135.93 -188.01,216.05 -525.63,719.17 -447.65,1751.6 394.13,2181.99 98.59,50.41 181.07,83.02 308.79,95.64 447.27,44.17 848.66,-171.7 1023.65,-580.82 42.26,-98.8 69.26,-208.06 75.89,-328.95 6.28,-114.63 -11.96,-256.22 -57.04,-346.28 -43.3,-86.49 -107.67,-161.96 -218.3,-185.5 -167.35,-35.62 -354.46,82.09 -325.16,260.75 28.16,171.7 25.18,366.18 -93.28,487.79 -153.32,157.4 -429.37,106.43 -594.25,-13.76 -145.72,-106.22 -249.16,-296.63 -246.92,-562.94 2.66,-315.65 159.67,-646.75 371,-840.44l38.38 -35.92c52.67,-47.48 133.74,-100.8 197.24,-134.96 407.87,-219.39 934.73,-96.84 1258.85,126.75 84.21,58.09 158.25,119.97 219.1,184.93 208.09,222.13 344.59,486.32 403.35,811.41 89.05,492.62 -38.28,963.27 -248.35,1315.5 -22.56,37.83 -73.47,119.06 -101.07,149.31 -9.52,10.43 -15.86,18.39 -23.82,28.2 -15.34,18.93 -29.1,37.87 -43.14,58.46 -48.43,71.04 -109.3,188.16 -98.15,303.77 20.82,215.8 248.83,264.5 429.92,134.62 26.91,-19.31 103.67,-96.99 126.08,-124.29 7.28,-8.87 16.81,-19.37 24.37,-27.71 225.94,-249.15 405.67,-595 486.04,-931.96 208.5,-874.08 -116.5,-1811.54 -772.74,-2338.57 -140.77,-113.06 -311.1,-216.65 -515.52,-292.68 -199.88,-74.34 -464.68,-120.74 -702.81,-102.32z"/>
  </g>
 </g>
</svg>
